<mxfile host="app.diagrams.net" modified="2021-07-29T14:27:04.094Z" agent="5.0 (Windows NT 10.0; Win64; x64) AppleWebKit/537.36 (KHTML, like Gecko) Chrome/92.0.4515.107 Safari/537.36" etag="0NiWu73uJERlRDgaC_gZ" version="14.9.2" type="github">
  <diagram id="8HGiCJH1GYi1birUAwJX" name="Page-1">
    <mxGraphModel dx="1038" dy="547" grid="1" gridSize="10" guides="1" tooltips="1" connect="1" arrows="1" fold="1" page="1" pageScale="1" pageWidth="850" pageHeight="1100" math="0" shadow="0">
      <root>
        <mxCell id="0" />
        <mxCell id="1" parent="0" />
        <mxCell id="T-zmjWkXylg_DLMNGPtu-1" value="" style="rounded=1;whiteSpace=wrap;html=1;" vertex="1" parent="1">
          <mxGeometry x="130" y="90" width="470" height="270" as="geometry" />
        </mxCell>
        <mxCell id="T-zmjWkXylg_DLMNGPtu-2" value="" style="rounded=1;whiteSpace=wrap;html=1;" vertex="1" parent="1">
          <mxGeometry x="190" y="135" width="350" height="180" as="geometry" />
        </mxCell>
        <mxCell id="T-zmjWkXylg_DLMNGPtu-3" value="C1" style="ellipse;whiteSpace=wrap;html=1;aspect=fixed;" vertex="1" parent="1">
          <mxGeometry x="300" y="155" width="140" height="140" as="geometry" />
        </mxCell>
        <mxCell id="T-zmjWkXylg_DLMNGPtu-4" value="POD" style="text;html=1;strokeColor=none;fillColor=none;align=center;verticalAlign=middle;whiteSpace=wrap;rounded=0;" vertex="1" parent="1">
          <mxGeometry x="350" y="110" width="40" height="20" as="geometry" />
        </mxCell>
        <mxCell id="T-zmjWkXylg_DLMNGPtu-5" value="REPLICA-SET" style="text;html=1;strokeColor=none;fillColor=none;align=center;verticalAlign=middle;whiteSpace=wrap;rounded=0;" vertex="1" parent="1">
          <mxGeometry x="325" y="60" width="100" height="20" as="geometry" />
        </mxCell>
        <mxCell id="T-zmjWkXylg_DLMNGPtu-6" value="" style="rounded=1;whiteSpace=wrap;html=1;" vertex="1" parent="1">
          <mxGeometry x="150" y="590" width="460" height="200" as="geometry" />
        </mxCell>
        <mxCell id="T-zmjWkXylg_DLMNGPtu-7" value="L" style="rounded=1;whiteSpace=wrap;html=1;" vertex="1" parent="1">
          <mxGeometry x="180" y="660" width="120" height="60" as="geometry" />
        </mxCell>
        <mxCell id="T-zmjWkXylg_DLMNGPtu-8" value="L" style="rounded=1;whiteSpace=wrap;html=1;" vertex="1" parent="1">
          <mxGeometry x="320" y="660" width="120" height="60" as="geometry" />
        </mxCell>
        <mxCell id="T-zmjWkXylg_DLMNGPtu-9" value="L" style="rounded=1;whiteSpace=wrap;html=1;" vertex="1" parent="1">
          <mxGeometry x="460" y="660" width="120" height="60" as="geometry" />
        </mxCell>
        <mxCell id="T-zmjWkXylg_DLMNGPtu-11" value="" style="line;strokeWidth=2;direction=south;html=1;" vertex="1" parent="1">
          <mxGeometry x="210" y="520" width="10" height="140" as="geometry" />
        </mxCell>
        <mxCell id="T-zmjWkXylg_DLMNGPtu-13" value="" style="line;strokeWidth=2;html=1;" vertex="1" parent="1">
          <mxGeometry x="190" y="514" width="400" height="10" as="geometry" />
        </mxCell>
        <mxCell id="T-zmjWkXylg_DLMNGPtu-14" value="" style="line;strokeWidth=2;direction=south;html=1;" vertex="1" parent="1">
          <mxGeometry x="365" y="520" width="10" height="140" as="geometry" />
        </mxCell>
        <mxCell id="T-zmjWkXylg_DLMNGPtu-15" value="" style="line;strokeWidth=2;direction=south;html=1;" vertex="1" parent="1">
          <mxGeometry x="515" y="520" width="10" height="140" as="geometry" />
        </mxCell>
        <mxCell id="T-zmjWkXylg_DLMNGPtu-16" value="WEBSERVER" style="text;html=1;strokeColor=none;fillColor=none;align=center;verticalAlign=middle;whiteSpace=wrap;rounded=0;" vertex="1" parent="1">
          <mxGeometry x="220" y="470" width="300" height="20" as="geometry" />
        </mxCell>
        <mxCell id="T-zmjWkXylg_DLMNGPtu-18" value="scal up to 6 now 3 is there&amp;nbsp;" style="text;html=1;strokeColor=none;fillColor=none;align=center;verticalAlign=middle;whiteSpace=wrap;rounded=0;" vertex="1" parent="1">
          <mxGeometry x="10" y="524" width="160" height="20" as="geometry" />
        </mxCell>
        <mxCell id="T-zmjWkXylg_DLMNGPtu-19" value="" style="shape=image;verticalLabelPosition=bottom;labelBackgroundColor=#ffffff;verticalAlign=top;aspect=fixed;imageAspect=0;image=data:image/png,iVBORw0KGgoAAAANSUhEUgAAAZUAAAHnCAYAAABwscDxAAAgAElEQVR4Ae2da8xl11nf50OlSqXqDVFKq5R2sGcGXyJVcSKRSy1q0QRFTeIv9oepE6xYbTEJFkwSDOPmYtkel1oD9SsuHUFNISANt9CYQoVcygcmFWqnQBn1yyiIDqWaVmhcyPBlvuzqv33+x89+ztr77POede6/I73v2nvtZz3rWWv99/Nfl3PWOnHjxv9u+KMOwAAYAANgoAYGTtRQgg7ACAbAABgAA8LAiS9+8YsNf9QBGAADYAAM1MDAiT/9yu2GP+oADIABMAAGamAAUoFU6VSAATAABqphYCtJ5U9o4GoNXKPngQ56sGAADIzFwFaSyljjkQPoYAAMgIHtwgCkwqiIUREYAANgoBoGIBXAVA1M9Bi3q8dIe9Aem8AApAKpQCpgAAyAgWoYgFQAUzUwbaJXRJ70xsHAdmEAUoFUIBUwAAbAQDUM7D2pfOnqzzSfeOeHm9/4n3XZXHr/0am7ml/47bp65/W6/uiP/6D5jg/c1Xz7xS9VA8G8PFfx/FMfvat5/Lt+pvnDP11v/a2iLOjczTb8pc9/rrnwvT/c/Pf/17X/33z/x5rv+I6PFZ/1tfXv/O4vN9/3sY81v/57XV198op3GuV1+T/+/k6/z7Gc1Ujl5v/5v83P/fwvNhde/JfNT/7UTze6jxlt6hpSGQ/ydbbRvpKKHcUizqVGvcsRvvwDv9zc+JPtau//8Ue/1Xz/dy7vNGvpiXVdIpXj1uOi7b6ofLR71de2TWTnv3mkpzQ/+a/ewF8VUhGBfOpT39f8809/rvnZn/vFNtT9NhALpLJdTsYvxL6SihzVJpz7cZ2h26MvlN4f+anfOnYH8cqv/fBCPf4+O9ZBKsvkYUc8tjNRIrS+sq87/td//oeb/xpmdtSGQ6MplUXPjfsqpPLqL/9K88lPfW8HeLpX/LorJOcHqUAqGROruv/DP/795keeWb5Xvir7jqN3WVJZNv1xbB6bJjt2SKXfV5Q6LSYbj2aqkspP/OTnmx/4waMOgfzopR9r9De2gVclB6n0A2VVdT5G7z6OVGr1ysfU37pkliEF9d5fPPe5Tq93XXaPyQdSGe8bVFcmDddtjIvXS49U/ttv/27zry/9ePPpzzzb6Np/Mc5GLBP+6i99pjl58q7p30e++TPN70wW2Lx4HZ//0Kt/0BJaJBU5MsvE9H12lfR6gVx6Swv1P/GDH57mobxyPirHt75j9osDY/U997NfGrVQb30urxbFX/qBD8/YM1TGXC/zymb5LFeyuUQq1/7Xl5p/8o312kj2jCmfMfLF6298CcJ15raO5Sm1ncudHXB0qnrmHp3COE3iHrLiLBennHKP8Hu/e9ZRK11+6a3X+ZYWpWW7HIJlFErup3/1jSmPHO9F7Zwm5229Md72xHJKv2VyOUt1FOf2Xd+eerKtUcZtk2WU50/81JsL9bk80iU9sqlU39ZnG/O9882h68C2KlR9/+bNN0a5sd2dNrat84npfR3TZjnXsXUuGrqu+9JVIxVNb330iX8292/ZabCSI3712TdIxU7DDkCFlpP4xX//JqnI+ctR+JtaTjP07SM7uCijuF/4oTe+dWWnnXVmEpHzjI6oVBbbnElKaaM+262yxPLmhjYB2zY9t2OM+lyGqKtUbucb00pnLpvjopzTZpszqdgWdwZKuhQX/0q2ltpoXvmcd24n2fyPH/twp65zm9gevcS5V+647366SyJ2YHZIdjSf/eznOmQj3XqZs1PL6S0XHYedSnSw0pWJpaT/1370zW9ElZyJ8o96NO33n/5t90sCLpPLKBsdJyfoeNupskf7lUcst9Pm8khXTGdisn7lW4pzHcZylPKoTSqyR3+lOtTUaSQGy6oNYhkd7zC3ay6vp2WHdFhXKcy29slY/1IjFS3KjyEVyZUMGRsnhxide0xnxxIdaHxuhxGdlZ73OXenzU7P8Q6t1/lKX3SmlrNTtWPryzfr033pq9Aur/U5H4fOL5dXz7ND1H1JT7ZlbNkWsTnXb76XvS5rqSwuTx8u/HxM+VzemI/rMbepZd3uykd/evH8UjnODjM6Qj+LjsLOLDsUk1JcNC2lV1zUV7pXnPOxPX0O03lYT7ZLeeW4mEbX0h0dtuKcf04rfZFAoqxtdVrfS0bpch52oM7D9zGd0pbSl/LoqyO3rckr3zuPvjA7attpu2O63LbxWbavT8+i9inP0ggo5h2vI/53glTk1HJP1wXyyx97mX6msM/R9TkHpZnnzKw3jiz6HLRkRYp2TmNJpY9IXd6SsyzZpTj/RTtcxuwcJZvzGFu2qN95lvQpLpJIny3ZjqjTaSIRlJ6PKV8fRqKN1l3CjV/k7LiGSCE6lZIzU37xRXX+DrMziY7H+uzwnMZ22nHFNJbJoWQs72eySw4nl9fPFZbS9dkV68I6LOs88n1fHo43wY9tA6Ur5ZHr2fZlJ53vlc5O2aHLIh25zLltnI/CvnZynlFvX3lj2ZyX7VKYyTnm77JkHESZiNWdIBUZ75dZ5GIHHQslB6Bn+ouOps9hWF/J6Qw9c55RZsj5ST4627GkUnJo0jUvrz792Y5ov8vkMOYRr/08hrFsi9gcZW2L2y+HJQJ1mlL7yb6h57lMki2NCqONLnNJr1660kvZ94JLV3QqfuEzCfQ5E6XPzi7K2tlEpxGv5RzsWIYchfIpkYPzt047cMXrr6/cfeWMdWEdlrXDzPeS67Mt1kWuJ+tXmPMt5dGX3nXsNsv3MZ/Sdc57qD1ieazL8rnuZa/bpRS6Pq1nbNhXD06v8tiWnSEVG2+H0DcyyaOaPodRcg7Ow73gPocluZxeDqjk/CQbHe9Ye5SmNLXj8vflNZZUhsqY8xhbtpITVvmzPsVF2SFbJFv6m5dm6Hm2p69Noo22Ibe74vucW59zVZr4EtqZ2UE5ryjjOIf5JY+Op0+f0zrss9vPFc6TcV6RVPvstmypnDG98rWsnWC+H7It1sW8Noj5lvLoS59JJN/HOixdq45i3mPLY11Kn6cM9azPXqc7bjivfLHNd45UVClDDkPPo0Pucxgl5+AKz07H8THM6SNxRLmsK6ezrNKrh24i6yMHp+8jFddNHK0pD9vhUZ7vS3qch20ZW7ZFbI4Oe8gW108O56UZep7Lp/vjjlSGXmK/iHaMLoN7mR4l2JllZ5uJw+kVRseZ77P+mC5elxxbfG69tjM/832sg76ySLbvWckOy7ru8v2QbbFuSumU1nUUHXtJ1m2Y20Y2ayTg+D4511EOS2WOdlveNnkUoHjn5bqxrELLl55FuUWvh7AoXSqPbdwJUvmVH/tMZ++u6LzkRP2NLBUuO5M+h5EdixxnHP34eXS6MS8/t+N1vnbabjQ5zxhXkrOuSColOcdJznaZRHyvfDNBxbhoi/ONaUv6nG9MK51jyua00WanjSMxtalkMhn6W34uw3HaaF75VA/HJZX4MsnG+OeXP/co5TxinB2BHVTUkWX1THnG9IrLDklOQE4vO5f4za6SY5WuKFNyfvG57bFzVr6+1rP411fOUh6Wtf35XnpV5hLh5bqQ/kgAtllx0dZSHqU6crtGnY4rtWGsA1+XylxqM5VF+dhh2x7fW18MS+VVuvwNvZjG16qDf/dy95t8LpvbwrIxVJ62aSlSWddXiu0k5XT0Fx2LnaCfKYxOpM9h2KGaFDKpqMJKui2f07uC5WijLdFxWibrlcx/+C+zv3uJDtnl9m8pXEbr8r3zyHUmZ624TAxOH23Ojt06x5RtjM3SJ125blynfbYs2kbKZ0z5+jAyZKNw4Be872XTy6ivGX/h997Y/0rOITsy2Whn1ueQ7CT60ktHdqSKszNwOoUlW+24LBcdtW3TMzvgLO942xHTK85/1pXLWXKwlrW9+X4or1Jd5DqU3pxvKQ/l43jXj5znb/x2dwNJ13Uum8uew5y3n2c7pS+WJ9e9bVIY690EFZ+Pta2Ux7y0srsKqagifvNL/7nd70tfGy796bkrjPDNF2wTdSGnnB35Ouww0fSR1TpsWEUeQ71y5WdSKX0luLY9cgTRqdTWP0bfOss7xh5kNuNvlhqp0GibabTj1Lsdex7RHEfXomk8AvEob9H02yjvUcqQI1+Xk7Ut7tVvqr5ij3pTNpDv5n0SpBKG5/sCyB//ntltYDSVk6e+apdXU02f/57uGSmeftoEmdUu36L61kUqGjHlNZZFbUV+8854X9oAUtlDUsnrKVqjWMe0l0dDcU1E1/s27TX25V8lqXh0ojlzCAVCGIvJdchBKntIKusADnngyMAAGChhAFKBVPgiBRgAA2CgGgYgFcBUDUylXgtx9GbBwGFhAFKBVCAVMAAGwEA1DGwnqdz+s+ZPb99uvvKVP2v+5Ctf4Y86AANgAAzsCAZOfPGLX2z4ow7AABgAA2CgBga2c6TCULTaUJT57MOaz6a9ae9NY+DEl7/8Bw1/1AEYAANgAAzUwMCJkydPNvxRB2AADIABMFADA5AKpEqnAgyAATBQDQOQCmCqBqYavRx00FsGA7uNgZWQyqlv+dbm3k9+ujl5+szOOqzTjz7WfOO3f9fO2r8rL+bR0VFz48aN5uzZs9Q1HRwwsAcYgFR6GhFSWU9v6fr1683ly5eXcibScfv27ebcuXNL6dkVIsbO9WCTej5ePa+EVPoaQ476/ouXpn8a0Wg0o1GN43d9hNNXduJnASoSECEcd5SitPpcu3atuXnzJqTS00ECe7PYo05WVydrJRU1ZN8IQARz3+dear7h/rfS2zwQ53DlypVGf8u+4CInSGV1TmLZ9iH9YbXNCTlyjxIUyulHEGhdQfFy+r7WfYkAJGNdfSMOkca9559v7nrnu2fyyWsYMT/pzc9lp0c/tsf3tjmWJT67/8JRc+axJ2bKG2VK+Vmf7JeOvvK6LqTD15Ltq5fTd59qnvzg482Lj59vHnzgXZ26cZ5jQjlYTQXFT3bc7uFr2snXko9TSNajuJdffrmjU2lKtmRdGkH0TW31EYFs9cf2SIc/d+7cabQOE/Pv0xVluD4sx0Z7b669Z0YqcoJyrLFRdH/fMy904uVU7332pRlyUDoRR+uQexbqcx4lolGeJTuKTvn0meaep55u7WnzVU//9Jnm1IMPTcthUnS5lKeIKOfh5yrfmY8+OU3veIVt2c8/3xlVSb+JzbKSU73JNn9pQflNbQwjklqk4rxjKGefiUX3r7/+eidezlqO3E5b01JaRJec46RXaTUyiNNWiot5SF4E0EcqWT7aW9Iv4rh161bHDqeBVDbnQNwGhLSBMTBDKnKO2dH2OcKSrBTPI5XsgKW/Qxanz7SOV3psqEPJKr3v23CyLjMTH512jzPv6AnyQ6QistHznDbXR4l8FBdJJutYxb0ce3T4ykP3pRFHlBVpiDxKxKBRSCSaEnH1lWUeCZQIpM9e5TFPX58dxOMIwUB9DJyQM/cUjsMSqZQcdp/jnUcqXpxvdU4IIebpUYTtyWGUbUExQEJT0KQvBEhnacRg+b6yyXalKxFeTpPvpVtxqyQVE4GnixyWSKVEFiIKEYZslS6RhZy268Wh9MX0ktEoJ35ynjFt37MoY9Kz7pif5RRCKvUdQ6xfrqnfRTBwIpNF7m1LmZz4jCM/ebIdMZTi55JKWLCXk9UaS8dJDzjuYuEWlZ+MSPrKpTxKhOC8Fxmp5Cm0VZKKCSU7X91nJ677HKfyRVnp0/RXHJG4DvJIxfExFClkW8YSgPL0VJzszNNtMZ+xOmMarnGUYGA1GDgRnbkcnhafM1HoXj37DgENOPIxpNKSybMvdddBwvST8iqNJBSX7RsaPbTAmay5KM8IpOOSivRkslCZNerL9ZnllLY0UqmxplJyrnLOWtvIBKJ7faLTzyMTk5QXzF13cTSjuFK+ii+RivLNtlhvDpVepNY3BWf5vvz9nHA1zoN6pV5LGDgRp5baheuHH2kJJDp0Od9T7/9Q5/ckmWTkTJU+6vN1Z70kEIfyyHqikSYz61HYIZTClJZlx8jFMipfOfz4jS7rUphlZ2y7cNRZZxEpOr3LH+Pyon4NUlEZRBLxI0J47bXX2ihPJ0lOjv3VV19tHXaUL5GM4kRM/mSSkVNXXP5k8ljU+ZsQc37GiMpT+sRyWpYQBwgG1oOBmYX6UsXLgXZGKYEYSvLErafxlqlnOfxIICVdeeRSklkkTnlmolkkPbLbjyvaiDaCVA6UIDdBKjgcHA4Y2H8MzCUVT1F5KocRy+6DIk8blUYseUqrbwoKJ7H7eKANacOaGJhLKjUzQxfgBQNgAAzsNwYglQOd/uLF3u8Xm/alfTeFAUgFUul8zXpTQCRfnCAY2A8MQCqQCqQCBsAAGKiGAUgFMFUDEz3N/ehp0o604zIYWIhU2l+NF7atX8YA0r4JYH0La2g7EurqzbqiLqgLMLCdGGh/UZ9/Ld7XWKsiFf86vfMr+D0YQcSv5ZbOAcn1DKls50uS24l72gkM9GPgRGkfq01UmH7/sipSyb/L8NYe6/x195gNGNdd794GxfVx9erV3l2J59lW+9f38/Ljef9LTd1QN5vEwEGQiio4/4LcmyWWfvi3igbZNlIRoejQK42mXF6R73F/5Aip4MiMI8LDxkKHVDwNpV/PexNEAaSzWWTaONEA8i/vNeLwtfSURh8dfZPNGvtGKjpaV0fs6qhdbbro/BYNM6kovQglj1YUFz/ZyUpeH4W+1v286a0hUol5zltTiXkqX20WKTKQU1eZ4pRba+jE1lxfpbKXiCGPZkrlzDY531x32QbuD9v50P772f4dUpFjj2RSavS+s0QkKwLpHDtcOJFR0235GGKTWYmAVkUqcr75eFo5UG21bgetMilOzlGh60MOWUfsypk7zs5czxwXwyFSsZx0RIJwvEM9i3nKTpHQPCJSGjl+61FYKld8rmvZI90K/ayvnCVCchrC/XQetCvtWsLAlFQ0uphHKFIwj1Tyor+IIpKFrkVe2Zgsl58ve59703097hIpyAGLFGyDZEqOPMtZXuGypDKkO+ZTupa9mVQkZ4LwyCKXaShdJj9IBQdTwh5xh4eLllR8hkh0/n1gmEcqmTAyWfSl75v+6rNj0Xg5VROGe/i+ty45yr5PdLiLOFvrXpZU+vK0focuWy5HiVScxqHyiFNWmYijziin9JDK4TkP44aQto8YmI5UOufGD3ydt48UpLQ0CsmkUpJxWj2LxtW8jqQivXKC+ajcLNOXv5xvnIay3NBoYllSGdLt/E0oss9xCkuE1GdPjC+li3rjNaSCY4l44Ppw8fAmqYhIeo7djQBZllTaNZV0Jr1GKX2L+qtaU1GZ5DTjCKS0hlCSUzp9cu8/OuRYZ7oeemZZ5Z+nlfxMoZ7lPGWLp/JK9ouM9Dynk65YdunP6UvEKznpzN8cKxFaKY9YHq4P1/HQ9vvb9p0fP3aO0w3f8orf5vK5Km3YI+MRR0wX11o6+Uy+aabjiqUzygl4NUhFzs2fPG2jZzHOTtjyCrPzdQ8+6pVcyXFHPb42Cah8cuTKv/TJ+Uo+55llTHjWJ92l44RFcvpdSvxEu/zSl+yL9WU5hbnuZGt8zvX+OhLalrY1BhbapsWJDj00qRx6PVB+HAkYAAMZA5DKwPpRrizfQyq8SMYCIVgAA10MQCoLkoqmuOInT3kBsC7AqA/qAwwcFgYglQVJhRfksF4Q2pv2BgOLYQBSgVRYTAcDYAAMVMMApAKYqoGJHt1iPTrqi/raRwxAKpAKpAIGwAAYqIYBSAUwVQPTPva6KBOjCTCwGAYgFUgFUgEDYAAMVMPA7pDKZBt9bX6pX+TTe1is90B9UV9gAAysAwPVSWVob7AaBVpG/zJpa9iODl5qMAAG9h0DkArDXkZ9YAAMgIFqGDhxz1NPT3cI9m7BM1NMnnq6eKmVLe0oPE0bZPKmk2bouNGkZPoOB8s6dZ9HG3lzSumTnPNSmPW0dsnOwlTaWNukt8Zml9FOrunFggEwsOsYONHuKDwhDTt3OeG4W7Cus6NWXJRxRWSn7/ihULqdt+VkVyfOxFYgAqdpw4lctlfPatnm/CAVHICxQAgWwMAbGDihM1RUGdHhRlL5hvvf+gZ5TORixcU0ji/F+VlfOJPH6TNtnorvpBlx3ovkRUi1SGXGNobJ3TahPqgPMAAGAgbmkkppemk6fVSYahpDKnL6UYeu46hkyJFn/ZK973Mvzeg7LqnMs61DcqEiiaenCgbAABg42cwllSEHX6rA7PSzjJx2njabyWPkSEXp7j3//MxXjI87UhllG0RCrwwMgAEw0IuBuaQiUpCz1V+HIHrWLkQYUVbXGkmIAJRezzujiLSe4zyULpOP7uPiukZR+qKBp/CUVro18unkMQFALdtsI2sq9EyNBUKwAAbewMAJO/zWYV+8NF2PyFNSfh6nrUqOW+QRp6PitJYqPT+XvtMPP9KmsS1uHBFLzM9EozjnnWWU35nHnmjT6Zl1lfJexjbpg1RwJBFfXIMHMKDpL4ZxHeKhPnAMYAAMgIHjYwBSgVQhVTAABsBANQxAKoCpGpjo3R2/d0fdUXf7ggFIBVKBVMAAGAAD1TAAqQCmamDal54W5WDUAAaOjwFIBVKBVMAAGAAD1TAAqQCmamCid3f83h11R93tCwYgFUgFUgEDYAAMVMMApAKYqoFpX3palINRAxg4PgYgFUgFUgEDYAAMVMMApAKYqoGJ3t3xe3fUHXW3LxiAVCAVSAUMgAEwUA0Dc0nFu/5qQ0lfa0PHvBmjWDZv7tjZIDKc3OgNH6Xj7gfeMd2AMm8AmTex1H0fm3/gPe9rXnz8fPOR9z7aK9OX9uzZs83NmzebO3fuNFevXm300f1zzz3X3L59u72/cuVKq/fcuXPTOD3TvfRevny5ldM/XStOafSxnO+jjG2Kz2yH87QMIb1ZMAAGth0Dc0lFBdAW8/c980Jnm3kRwJCTdzqdd+Jt7xWnNCakloQmxwNLRvGW1bNMMrp32lyxy5CKdV2/fr0lE5GMHLqc+9HRUUscIhkTiMJbt261z5xWodJkIpCuGzdutMQi/ZJT3CuvvNJe614k5Ge6N3FlXXrGH3UABsDANmNgNKlkciidZTJT0MJhW/EQL418TBwdUimks27Je9t7x9UKr127NiUKOXo7dTn5SCrKT88yEWQZyXkU5NFLydasqyRDHI4EDICBXcDAaFIRGcQClUglTo/5HJTOFNjJk80YUhHBxDNZrMuhiSjaU+N6EVLJoxURg0ko2iJSEflIPsbHaxNPO1c2+RcJK8pyjWMBA2BgmzFQjVREKDNTU4URxxhS0UmOmibzVNi6KnARUpFNHmGURjK2eQypWDaGfSQVZbjGuYABMLBtGKhGKho95BGEiOE4IxVVkkiqtGajuJyP5GusqSxKKh6taM2kNEqRXfNIRc+VXms3ERyQCs4i4oFr8LArGJhLKnFKyyORGDclDX+76+Kl6RHA+paX0rTnyv/9b37jevJcOqxHMtNvgU0W7lWBIg9PeTksEYpklyGVPP2k9Q/96RO/BeaF+9i4cv6SkY4Yn3XGqa1IQH1yTH/hRCKeuAYPu4KBuaSyKwXZlJ0iiKFF+E3ZRb44ITAABjaBAUhlia/pavpLI4o8StlEQ5InDgQMgIFtwACkcgxSEZHET2labBsaFxtwMmAADKwbA5DKMUhl3Y1EfjgGMAAGdgUDkAqk0vmCwa4AFztxsmBgOzEAqUAqkAoYAANgoBoGIBXAVA1M9By3s+dIu9Au68QApAKpQCpgAAyAgWoYgFQAUzUwrbM3RF70vsHAdmJgFKl0NngMv3hftFG1CaV+Xe9f5i+aviRfy7aSbuK2E7S0C+0CBrYXA6NIJTZg3BAyxo+9Fgm0e3qdPlO9h7ysbWPLgNz2Apq2oW3AwGYxAKkw/VWd3HmpN/tSU//U/yYxUJVU8gaQ080mg+P2SGW6geRkg8nSRpEa0XgjSYWlXYtj5c0bqXTsu3DUaMPLUr73nbmnefrRjzeffewTzdvf+jacbmi/WN9c47zAABjIGKhKKlm51lDyiZEiFa2p3PvsS+0xxU4jwoikIWefHb7uh9ZjhkhFOyJH/V6LyXnIHkiFF8W4JAQLYGAxDKyUVEqHbbWkcv75DqG0jRYP5orXqZcsEhBBlBp6iFSULpJKKT1xi4GH+qK+wAAYyBioSio+HyVOWeUpME9/iXCyMSYFjyKinnhdGl1Il9Nnve194bwXSIYXooiV1JFBBpyAgfEYqEYqIpSZqanCiKMdqXzy07NHBUfZeL3ACz5IKgU9Iqc+ggJE40FEXVFXYAAMGAPVSKXkoDUSKI1UFJfjJRsdfF4DscFZzvEKe0nl9JnmnqeenplyK9ksPayp8IJEXHENHsDAeAyMIhU58jj9NL2OP4QsTC91jhN+57tbp+4fP5568KH2h5DWFQnFDag4P3eY5Y5rm/QprfOKIaQyHkCx3rim3sAAGBhFKgAFoIABMAAGwMAYDEAqhbWWMRWHDC8YGAADYGAWA5AKpFKcAuRlmX1ZqBPqBAzMxwCkAqlAKmAADICBahiAVABTNTDRi5vfi6OOqKN9xwCkAqlAKmAADICBahiAVABTNTDtew+M8jHKAAPzMQCpQCqQChgAA2CgGgYgFcBUDUz04ub34qgj6mjfMQCpbBGpXL9+vbl9+3Zz7tw5HP0Wtcu+OwHKB9HVxEB1Uundfwsn0UsUIhN9rl271ty8eRNSASu9WKn58qMLMlkFBiCVLXJgGqFAKrzoq3jR0Qmu1oWBaqRSOkul3QQybjp58mS7iaM3h1QaFTSen+JdiCXjXYQtr80odZpkp3IKG1nmTSctf/ruU82TH3y8efHx882DD7yrq2cBcrl8+XI7srhz505zdHTU+F6RV65c6ejVc8n5o9GIRiZnz57tyMlGSIUX31glBAu7ioFqpOIKGDP9ZeJwGoUiC21P78O7RE2h4igAACAASURBVDj3PfNCZydhk4/JSOmkK947rrQDcS1Ssd0iCK2BaHRhkhDB+HmJJEQoUd6yCkvy8TnXOBowAAa2HQMbIZXS2fWZHEQUM4d+TchHxKWKFcm05DFwiuQqG0AEkUcmMT+NUm7dujV6jQRSwWFE/HANHnYRAxshFVWUyMDTVHmUouciFT+PFRuJROk0JTadHrt4qXOdRzBRT41rjVREHEO6RDrxM/TtLkgFJzKEJZ6Bj13AwMZIJY5W8ihFFSdCaEchaa1D6caMVNZR+WNIJdshErpx48Z0uiw+h1RwGhEPXIOHXcRAdVKJIxBViEYb+ehgV5RktY4S11L8TKTixXrHKcxrNtI/M6KZLN7nkcoq1lSGRioapeTpMUgFRxHxzDV42DcMVCcVL6Z7Sqq0LuJKbEcrz740+42uMP0l4rGuEslIV5aRXCYUydUiFf+uJE5r6VrxLpvCPPUlmdL011h9UTfXOCMwAAa2EQPVSWWRQsaprJxOpDAzAklTYTkN97xkYAAMgIHNYmCjpJKnsiIYIJXNAiO2Bde0BRgAA2MxsHZSEVnE6azSlJZGKFGGEQuAHgto5MAKGNgsBtZOKjT4Zhuc+qf+wQAYWCUGIBXWaTpfLlgl2NCNMwMD+48BSAVSgVTAABgAA9UwAKkApmpgohe6/71Q2pg2nocBSAVSgVTAABgAA9UwAKkApmpgmteD4Tm9XDCw/xjYaVLxV4/5yvHqgBrPiunbsh9Hsbr6p26p213DwFaTytAv7l3R/EhyPS+dNrvUdjI+N8b1T7ie+qeeqeddwQCkwvTXqOkvSAWntitODTs3i9WqpOLpKP8aPu9O7M0mY7xGIz4TRaOOFhCFI4KtU5tHRtB4pBI3lezbxDLKSN80vwmx2D49U1nifUmnjiTW0cQ6olibVUa7Fr2Om0/q+OGrV6/O7HCsUYKmoPzxccbOSzsgK04yr7zyyvQY49Imlpa1LoXx1ErrdAipbPZFdTsQ0g7bjoGqpJIL2+5CfP751jlPn50+0+4qLIc9jes5Fnjs9JdIIJKNCCHeKx/dd9ZeJsTViZuQi8hGRxmL7GSD0t/9Te/uluPkyfac+xqkImcedziWAxcRxG3zTSjR8Vsux4lU4omTej5vPaSkP7YPpIIzi3jgGjz0YWClpKLz5uXMOwRSiluSVDKBiAjiGS295NRji0ilNDLpq8Rl40UekVRK+kQMkWQsk5297kUo8ZwXxYlUFDpdKZT+SFBRJucTn3GNgwEDYMAYqEoqcsaepnIYp7raTHscuYghT0f1kkFYB1GaPNrIpFKScQWUdkoekne6mqFHCXEqKpNMn8NXWsmaMErOX3GZVBSn0VD+QCo4h5rYRtfh4akaqcgRz/TuSwRSiltypDKPVHrJqceWdZNK6cUTicSRySIjFZGMyMZ6M6noPo9mJNtHXHqmNFmv9RMenuOgzWnzPgxUIxU59uzcNfqYGalkAgmL8nLm0VCRwb1hTcYL5zGfEgHkkYp0lkYkJZslW9IZ7fJ1jYV6OX+dWR+nq6Q/k0oekdgGOfo4uig5/0wqykt5RuKRDn2iLuehsKQ3PucaJwMGwIAwUI1UtH6ikYqnvRSeeeyJN+LCgrcyldP3N74kJycuAtJ1JAzJ6j7qjMQTn3mUpOeWj4RmQvIzhXktJqaNclFPfHFqkYqmpvJHZBHz0nXpG1txNBOf+xtfMS5+W0zp4kc26Btn+liniKQ0RSYZyUdSyrZyj4MBA4eJgXqkEtY5ANNhgol2p93BABiAVCDDmRERjgHHAAbAwHExAKlAKpAKGAADYKAaBiAVwFQNTMft2ZCOXjEY2B8MQCqQCqQCBsAAGKiGAUgFMFUDE73N/elt0pa05XExAKlAKpAKGAADYKAaBiAVwFQNTMft2ZCOXjEY2B8MQCqQCqQCBsAAGKiGAUgFMFUDE73N/elt0pa05XExAKkUSCVvYZL3w8rPS1uqHLdBSMfLDAbAwC5jAFJJpCKCiCSh/a20z1WMc4OLbEQw165dm9kQ0jKEOAgwAAYOCQNVSSVvFBlPTmwr1ZtOXjhqTj34UGcDyrhRZGdjx8lmlFl3lJfuD7znfe3Rvh9576PHns7R5osiiBIASsThOJNLKR1xOBQwAAYOCQPVSEW7AGun4HjKo3cGzgSgbejvffal6aFcbdrzz0+P7lUDKM3M7sATUsr6JF+DVDTqyFNdBkMmjkhAeWt5pyHEmYABMHBoGKhGKnL0edt6VaYIo91i/vSZ6QhA91lWcR2yKBCInnuL+1U0lEceJd2ZVDIB5fuSDuJwMGAADOw7BqqRSjzbJJ5Fous84igdmDVDKpPRypREJiSTyahmA2ndZGik4md954yU1l1q2ocuHBIYAAPbjoFqpNI3UilVwFhSidNn0p/JqaR7mTiRRokYtFgfT2fMoxbnOTTSsQwhTgEMgIF9xkA1UtHJj/c89XRnXUQVpwX2eCSw4saSimQ1MtFoRbqHRik11lSUn0glEou//aXpLT3XXx959JGN0xHiTMAAGNh3DNQjlcn6iUYTcfqrM7rwt78uXmpl2jWUFJeJw6OVmW+Spa8C1yIVNbhIJX487WWC8TOTT473Ub77Dh7Kh4MEA2AgY6AqqWTlu3gfz3Q3eTg0uexiubCZlx8MgIF1YABSSSOedVQ6efBygwEwsK8YgFQglela0b6CnHLhwMHA+jAAqUAqkAoYAANgoBoGIBXAVA1M9AbX1xukrqnrbcUApAKpQCpgAAyAgWoYgFQAUzUwbWvPCbvo1YOB9WEAUoFUIBUwAAbAQDUMQCqAqRqY6A2urzdIXVPX24oBSAVSgVTAABgAA9UwAKkApmpg2taeE3bRqwcD68MApAKpQCpgAAyAgWoYODHdsHGyyaN2A9bZJooXu+taG0Rq80dfl85IkWw+8ndoE0htHBk3njz98CMzh3lJ54MPvKs9JvjJDz7enL77VLWC03NZX8+FuqauwcDhYOBE3q5ezr6zs/Bk+/n7nnmhs/V8u6X9sy9Nt7oXCY09TljkpL8p0CY7FU8P5Aq9BkjlcMA4xUNof+JofzCwWxg4obNORBBDDSei6ZDA5KWPB3PF66hLZNOmnRwnrLx0nkqU4Xq3QEN70V5gAAz0YeCEyCBOQ5WmrEQqkstKIkHk6ayoM458+sgn6+Ye0IIBMAAGdg8DMwv1pWksEYb+cgNHgojXWS7eRyKK8VzvHnhoM9oMDICBjIETeVqrj1Q08uiMVk6faae1JN8qXeA4YeWZSUq6S6Mk1lQAbQYt92ACDGwvBk7Eaar2+sLRzBqLCODU+z/ULsRH+Q7JjDlOOCzAiliirtIivYADqWwveHixaRswAAYyBmamv7KA7ltSKayplGSJA2RgAAyAgcPFAKQSRk+8CIf7ItD2tD0YqIOBuaSSp6nylBcNUachqEfqEQyAgX3AwFxS2YdCUgZeVjAABsDAejAAqTD9NfNVcV6+9bx81DP1vI8YgFQgFUgFDIABMFANA5AKYKoGpn3sdVEmRhNgYDEMQCqQCqQCBsAAGKiGgb0hlXYngBGbY9LrWKzXQX1RX2AADCyCge0llcl2+P7V/byvMh8KqXzwb31N8yN/+UT79+mv/vPNvX/n66v1MBYBDrI4GjAABkoY2F5SCcNRftF/sjl98u823/nX/2Lz+N/4K1MSefvXv6X55Nf8BYglYKUEcuJwfmBgfRiAVHbcIZ39ur/WiFx4adb30lDX1DUY6MfAKFLRSEHTUD4XxfeKi9NS2tZeOw17yirvOuzn2jzy1IMPdWSls6+hhkYqmvaSXW2ehc0wo07ZOrXt4qXmzGNPdHdaDscnW65vo8tOvhcvNfkY5pjvB97zvvZI5I+899HeMkb5sdcik3/6tX+pHcWMTYNc/8tA3VA3YGB5DIwilbaiJ1vb3/vsS2+eAnn6TEsOet6uaXzy09Oz7R0nhx+Jx3I6cVLXbkRtB6M/38dwiFSinE6UFHHFOF9LRyYI5WeitFwOZXtOd7Kwzb/09+mqTSqaAtO6Cmsqy78Aub25p07BwHIYWIhU2hFGz27Fcr5yrLlBRBwtWUyOE25JpfQtrXw+S5iWWpZUsg3ZxqH7UtreMgSbh3TWevbg3/6b7TqL1ltq6UTPci8U9Uf9HToGFiIVkYMcaqnS5Pg9ZZTD2IMvOWnr6xtpLEsqi5w2WSrHzEjl5Ml29NUp55ypN5exdqhvg+mvtl704RzBABg4DgaqkUrfSCUb1fby0zRZK7MFIxURSp6CGyLBWLbecq149AKp8OJHHHINHjaNgWqkUlpnUOE0SojrJ3K+Grnk3v8QKS07UpEdJcLwFweUt2REKL5uG2byW5mSrSXykZzK16YNZFJjTUWL8lpDid/00vTXv/irf64Tl/PmHicDBsDAOjEwn1TSjxDjlI8cdTTWhBFl4tSXZCXTOu/3f6gzXZYdt3RHPfE6On7pis+m14XpqKyzZJvipjouXmpOP/xIS4JRVvlHmfa6kJ/rpgapSJd+6Chi4cePOAljixAsbBsG5pNK6HHXMN6kopFNDX3o4KUCA2AADGwPBiCVyqQJuLcH3LQFbQEG1o+BtZKK1zA8dZSnvADA+gFAnVPnYAAM1MTAWkmlpuHo4kUAA2AADGwfBiAVpr9Y2wIDYAAMVMMApAKYqoGJXuP29RppE9pk3RiAVCAVSAUMgAEwUA0DkApgqgamdfeIyI9eOBjYPgxAKpAKpAIGwAAYqIaBjZBK/GV73u6Ensf29TxoE9oEDICBsRjYCKnYuEV2D3aaZcK+XZCX0UlaXjYwAAbAwJsYgFQY9lYb9vJivfliURfUxaFiYDSp5F/Dq9ffTl2FPbyyTD5OOFfyvJFK3iyyb6osb2SpX+rrqGBvPFncAPLipfY4Y9nQsStvoFnYKHKqb/Jseq8NKNMmm9Jda0PJjp2QYbfdqA/qAwxsBQZGkYqcdt7WXQ4+brNSkrGzt3PPTnGIVOScs4PWfcxT+qRDRxxHcrCTz/nOnf6aEEpMN1QG6VPe0aaY1uWFVOi1GguEYGHfMTCKVFrHnc6UzxUjZ5pJQDJyynlE47S9pLLAgV1ziSL0XubJLloGlatUZpePEAcCBsDAoWFgFKmoUuQ8vRGkwni+SOn5kKwruY9UPDqIOuL11JEPkI/ziOE8UpHe0khD2/SLQGTXIvqiLNc4FzAABg4BA6NJJVeGCOGep55ufC5KXy8/p4v3faTS58RjWl/PIwrLKZwn21eGvtHWPH0xb65xKGAADBwCBkaRinrw09HBZDopk4qIQCSj+Fhxuo/HCedncswxztdy8O20WZi+0rM85VTUP1kbyelzWpWpM+LqGZEoXWkEM5ZUWFPBmRjXhGBh3zEwmlTi9JOuO8544vhL01ZZTiSgb4VlfbrPJCCnn+UyuamBSjpLJJDtiwvsbuiSrpyn7Mx2ley3TkgFR2IsEIKFfcfAKFLZ90qgfLzoYAAMgIE6GIBU0vQawKoDLOqRegQDh4kBSAVSKa5p4RAO0yHQ7rT7shiAVCAVSAUMgAEwUA0DkApgqgamZXs4pKeXDAZ2HwOQCqQCqYABMAAGqmEAUgFM1cBEL3P3e5m0IW24LAYgFUgFUgEDYAAMVMMApAKYqoFp2R4O6eklg4Hdx8D+k4rPRymci7JKAPtX96Vf9h8337jDQN594Lg6Sbf7LzFtSBtuEwa2mlS0ZUrf3mCLVuLcfbpMPjq8K/wtQwoigWXS95WxZr305UE8jgoMgIHjYABSKUx/zSWgQppS5UMqvJQlXBAHLvYZA1VIxVM9OsJXm0VqE8m7H3hHeyJiaaNFy3tEMLOxY8+ooaRLjVPaKDIeJywZEYVGDbLN+eaNIt3Q80gl5yd9JV0mFYXOM2+wqTxnNrGcM1U3b6SS7dPu0apzxbuMDtnsEgdnLBCChRoYqEIqMkSO0w5TzltOtJ366dkSPxovuRlimThbOfgom6/lYMccJ2wia23SSGNCXNP7MPqYRyrZBt1LfyaWtk6eeaGz+3K2V45eZY8O36RQsk15DZJKob5j22TbIRUcScYE92BiGQxUJRU7wY7TKzi5bLCcqJyyD/zy846e4PT9XOFYApB+2+f0craZCBbRaT0KpTvr0n1brmR7lI3XUV9fnUhmqF6UTufXSCbq4xpHAQbAwDowsBFSkbP1dJDDY41Ueg7VKlVciXxkRyYCpS3JduJ6pueyLt1nIpP+SAqScR3k0CO/XJ6YPj/TvfLs6JoznVbSQRwOCAyAgeNgYO2kIieae+99vfJ5zlMF7jj7NCKIFVKSky36i3J9Oqfpe6bNSiOOPv1RNl5nO/rux9RLTNuOXtIUW3zONc4DDICBWhhYO6nMTENNnHTfSCUeRSznqN57JAI52CjTVsxEZySvKSkE4ulz+iVZx5UctGzQFxSiXbJD9xoxxPgZe3umB2fkgt16JntKIBBJxXJLpmSz07KmgjMxFgjBQg0MVCEVOTFPt8iB2smKAOK3wOTwTAyWb53uw4+0ZFGa7rFjtrx05II7P8sonMqlqSo7+Ghz64STXNTVXocpJOmOz1uie/iRNs4O3fol62ulKZWxVCdZrlRG2+A8VS/Ztmx7rjtIBUeSMcE9mFgGA1VIZRkDSAuAwQAYAAP7gwFIJUwrAez9ATZtSVuCgc1gAFKBVGamE3kZN/MyUu/U+z5gAFKBVCAVMAAGwEA1DEAqgKkamPahl0UZGC2AgeUwAKlAKltFKl/+8pebMX+8+Mu9+NQf9bcqDEAqkAqkAga2CgOrcnboXQ+RQio4lK1yKGNGKZLBQazHQVDP1POiGIBUIJWtctCQCk5sUSeG/HZhBlLZAVI5Ojpq7ty509y8ebM5e/bsVpFA7RcaUtkuB1G7fdG3/+27GVJZYHdhQPgGCM+dO9dcv34dUpks5IOL/XdOtPFutjGksgMjFb1ckEr3W2E4nN10OLTb/rfb2kklbxDpTRHjBopxg8UYHzdLjBs1xuu+TRtnNmQMG0RmoN935p7m6Uc/3nz2sU80b3/r2xaebtIUlaaq9Ll9+3ZLCM5Dow19NJ2laS3Fe3qrfZCeOZ1J5bnnnmt1WvbKlSsz9klW+fpz48aNdpSjeOuLNlou64oyHiXlcuW8pCOmk26ldb4uv/OMzySj6a93vvOdzYkTJ5qv+qqval566aXpveIeeeSRVsb6CPffSdHGu9XGayeVFiAjpr/a7doLJxiKlLzTsHTp+r5nXujEiUDiEcOtrnSeiIlLhJRBuyypSN/ly5dnCMX5yPHamcopy1FHh29HLR1OYzmRhclIz6THunQvhy4SiTLKr0RuUX9Jl/OWrtdff70lQqcRuelPMiV7FR/L6XvFWa/j4lqR11Q+//nPN295y1taYrnrrrtaIlHct33bt0EqOzK6ju3M9W4RwzLttbWkokKJMOK27iVyyDKuDJGFySde+7lC6Wv1nz7TcXRR5rjXcrS3bt1qnbudrh2qSMDXctK+jnkpjeREEoqP+qKcnktOz4fkYpqsOz67du1ah5D0TKSisjiPKO9rlSGSW7Y32+l0CpXWZBVJ5Wu/9munIxPHO4zpuT4ch0Vbb39bbzWptCQSRisiCROFwaX70mhDoxUfZCUZT7PlME6vWWeNUE5UPXA5S/1p9KA/9e5NNspHDrXvE0cXixCB8oufONWmPEUSiuv72MG7HiQvsvF9KcwkonLFEYiexym5nLfkpdekoVGJRiia/nJcDEs2ELf9Doc22v822mpSEQBFCBpNlEYpfp6JRvFxdBKv1wlqOUr9ufev8LXXXuv0+uXA7VCHbJNTztNkkh8aAVhfTqv7OAqyXF84hlSUVjo9ahKBRHIaY6d0mDgglf13Pn14I363235jpKLjg+MIQ8RROlLYo5V7nnp6ZpQi8HkUEnWdzGs2Cx7ZW2NNRbbJqcq5aoQip6p7feI0keLzGojS5ikn9/Tj6EVy0hVJSXlE/ZLJpKI4E56u/SdbPLpynMKxpCI52Xf16tXOKMW6SrbpWSwDpPJme7jeCKmTXcLAZkjl5MnpkcOejoprJ7kCRRwlwpGcnp16/4fa59alsEMyk/UTTXVFmb6pr1qkYiKw08/3Lqfj45RQJA85a//48ZVXXulMXVm3dZm4oq48/WVZOfP8UXo/d75Zpk+f0llntss6FZ8/UVYjFK2l6Jte+U/fCjPpWB8hDhcMbBcGNkYqiwChJY7Ct7SkY+jZInkgux3ANGnMC2mv7Wgv2oF2yBjYelKZ9w0tSGW/QD2PTPw8A5n7/cIB7bm77bm1pKLpsDhVdX/hx4pZJk95AczdA6ZJY15I2+5e29Jmh9FmW0sqAPAwAJjbeR6Z+HlOx/1h4oV23752h1TCt58A6OYBatKYF9JWm28r2oA2KGEAUoFUpt/2KgGEOBwHGAADi2AAUoFUIBUwAAbAQDUMQCqAqRqYFunNIEvvFwzsJwYgFUgFUgEDYAAMVMPAzpOKfscy/aV84WvH9Ib2szdEu9KuYGA7MTCaVPQbEP3QcJsbUrsSa3fipWzM+4bRg1muPqk/6g8MHBQGIJUMeEjloF6ApTogGTvcgx0w0Mwllc700sVLnV+555HL4JG9p8+8senjhaPmzGNPtHq0SeTdD7xjOn1lfQr1a3qFvm5/XT9nemtopNLRc/FSm6fKFp1KlvEv+ksbT+Zf8w9tiPmB97yvefHx881H3vtoJ7+YN9fbOZSnXWgXMLAYBuaSiit03vSXHLRIIjpqE1LcPkXO1zsOt058QhQ5vdLomODorEv6bJ/CIVKJcrpujxw+/3zH3lZmxEhFdusv6tS9yxXjdQ2pLAbKXH/cU39gYHcwUI1U+khHRNASw+TI3uj4Y5oSqZScdDzRMQMt6s7PZu77yKMv3sPagecilkigM3laB2GHkKmn3XEYtBVtNQ8D1UhFDtXTRTmM00fR8c8jlTwaUGEyScUCRt0xXtfKa8iuqfwAaUjGo6Wsy/clm6e6IRPIBAyAgT3HQDVSiQQx5ESj449pSiOVOPVlnccZqSifmVFPH3n0xRsI855bjhDnAQbAwAFiYCFSiY7Zi/Jy2K3DH3lk7yKkot5/7vnH9CYah33PpCPrEWHFEZR16ChilXNarpMn2+m7WHY9KxGe4nI+0suaClMGU3wdoJOh7IeF/9GkImDIaXqap3S+SWlqaOq4/e2vyTfI5Jj1J31y2NNvgU0W7vVMDrqTZ4Fk8vOifSlvyegbaMq3VA4TpnUpj/xiyDY/d1giFKWDVA7rpcpY4Z72PyQMLEQq66wYk8o68yQvXn4wAAbAwHIYgFSYjpgZhfFSLfdSUX/U3yFjYCtJJU8t9U0rHXLDUXYcFxgAA9uIga0klW2sKGziBQYDYAAMzMcApML0F9NfYAAMgIFqGIBUAFM1MNGLm9+Lo46oo33HAKQCqUAqYAAMgIFqGIBUAFM1MO17D4zyMcoAA/MxAKlAKpAKGAADYKAaBg6WVPxr/tKv5emNzO+NUEfUERgAAyUMbDWpDG0eWSrMonHL6F8m7aJ2Is/LCwbAwK5gAFL56JPHGvZBKrzku/KSYydYXScGqpCKN3Vsjwm+cNTu/qsNItsNGy9emtnR11NP3ohxuumk5zULG0BaNk9XyblrU0g/Vyj9M5WYdMq2Uw8+1J4WGWVdFuuTnHYunsokPZZTeGzbTp5sTt99qnnyg4+3xw4/+MC73szPdUJInYABMLADGKhCKnK42krF5GDSaJ172hJfJHDPU093HLXi7n32pfaI36nznhz5q+3sY9zc64nTj8Ti3ZNjnG3MRJD1S26GWCra5vwgFXqTxgIhWNhlDFQlFTvtztRQIhWRj+VixXXSTNi4FBfT9F3nPJRfaf8wxc8jFRFSKxNHK8cllQn5lsrfVxbicTBgAAzsEgbWTipy0HHKKF7nEcEYUvEoJOrRdXTcmWTcQCX9ks26sl1KX0prvQ7H2GZZQhwHGAAD+4CBtZNKn4MvVeY8xy2nfe/552emzXIeY0cqSpdHLscdqYy1rVRu4nAuYAAM7CoG1k4qrbP95KcbhbHS5PjziECkItKwrEKt28j5K62e5/UZ6ckjlTbPRD5KqwX+SCK6jiMcHy2c7XLeNWxzHbCmghMxFgjBwi5joAqpxCktOXw7bBFA/BaYHbafx2mmkuNWxUpflLMOV3p+Lj3tt9DS0cMmJOuSbS0BXTiaklmWkezphx9picxfQnC+NW1rdfHtr04nI9Yz1zhZMLA7GKhCKjT47jQ4bUVbgQEwsEoMQCo78L3vVQIA3TgYMAAGamIAUoFUmHYCA2AADFTDAKQCmKqBqWZvB130nsHAbmIAUoFUIBUwAAbAQDUMQCqAqRqY6FnuZs+SdqPdamIAUoFUIBUwAAbAQDUMQCqAqRqYavZ20EXvGQzsJgYgFUgFUgEDYAAMVMMApAKYWjCdO3euuX37dvun69hLvHLlSuOPZPLzKMv1bvYuaTfarRYGIBVIZUogZ8+eba5fv94hjcuXLzc3b95s9EygOzo6am7dutWRqQVG9ODYwMDuYwBSgVR6SaVEMnrpNXIR2eAAdt8B0Ia0YW0MrJdUfBTvhaP2KF9t/ugNHvNGkcXNHSe7E6sS2s0gL15qdym2HsV5g8m8AeTMJpYXjma2zHfl3nfmnubpRz/efPaxTzRvf+vbFnaecrj63Lhxo+3l61pxnkaKU0iOk4yuZYOcuUYH+ij8whe+0Ny5c6e9fuWVV9rr9mFIY9sVajQheX/iSCPKxbwlL915pBLlfX3t2rU2D98T4pjAABgwBtZLKpNRgY4I1vHBJpLS1vQ2MIbaDVmk4TgThfSYhLyVveQs2+pP2+1b3jZYp8JlSUU67NhFJl6vkMPWMzlzE4jv/Uz3+lMakYHXL3yfp56ULqYtTU/Jhkhk0p/T2cYsZ3scSlfMz/GEuDD+UQAAFnhJREFUOBUwAAaEgY2QSiYHGaK4koOPQNVzE4XiRSrTM+xPn2l1iCz0LJJKTmedkm1JKB0V7OfLhHLu6tFLR55GyqQihy6yUBrnOUampLtvFOGRktIoPxGD10mcp4lLoeNiKB19o54oxzXOBQwcLgY2QioiAhFCBN4MqXiq7OKl6RRZe75JGqmMIRURjKfZcpinyaJNy1wvQirKRyTiEUDJufcRgdKaSDJ5RfujPfE6ygyll30QyuE6iogTrsHBEAa2k1QmhJJHLnnEsexIZahiln0WHXd21nkUorxEGh6t9D2P02G2L+s2wfi5w2VGKnmqzDoJcS5gAAxkDGwlqZTWQLx+cpzpLx0LrGOH8+hI9/FIYFdOrTWVsdNfztejgRJ5iHS03pFHC5EspCeSmfWWRj4iCuVnGZGTdMc1FecZ5SSve+XrtIQ4FjAABoyB9ZJKmtJqRyIpzqShZ3GqStNUOtpXcZ4q83N9+8tEpDiPaCyrwuq5dDiNwr6pr2VJRQ7XHxOEQn1MArr2dJcbw0685LD1TPKvvvqqVbdhJhnpktOPH32zS2TjfBxKX/xIt/RZXmnit8iibMlG6yXEwYCBw8XAekmF34TMOPb48pk4NGqI8boeepZluT/cF5q2p+03jQFIZYuIbmhaCVLBWWzaWZA/GByDAUhlw6RSmmLK02JZpjTlNaaxkcEpgAEwsGoMQCobJpVVNzD6cSJgAAysEwOQCqQys36zTgCSFw4PDOwXBiAVSAVSAQNgAAxUwwCkApiqgYke5371OGlP2vM4GIBUIBVIBQyAATBQDQOQCmCqBqbj9GpIQ28YDOwXBjZCKnGDx3aX4GM6dqX1L+hrAbOWbbXsQc9+vXC0J+257xjYCKm4UjsbQh6TWEQC7XYvx0xvW3JYw7ask3scChgAA/uOAUilh4wgFV7+fX/5KR8YXwUGtpZUShtAerPJWBEeqcRpq9JGkSKJ+y8cvbmh5MBxwtI/j1SyfdoFWdNxio/26foD73lf8+Lj55uPvPfRmWdZlntedDAABnYZA1tLKqVKldPOxKL7+5554Y0THCejDhGCjitWKD1y9N7J2HpNCn1TZ4OkUthKv7Xjcy9BKj0jP9c7IQ4TDOw3BnaKVLylfQSlnHlpsT/KxuuYVsTSpi0cJzxEKi1JnX9+SlpRJ9f7/cLQvrQvGBjGwPaSSjpnxeeglEYqpdFGJAWlcfoclqbKBJqYvgQi5dnRNWc6raSDuGFwUj/UDxjYPQxsJ6mMPE5YgBNhZKJRfBydxOuxIJ1HKllPaYoty3C/ey8IbUabgYHFMLCVpFJy0HLyWmjPBOJRSIyXbOeY4MIaiIAyIxfWA4ZIRSSVp9xKNhuMLNQvBkrXGyH1BgZ2DwNrJxWTQ2fq6OKldiopOuo8vaRpqnicsMAmeemxk7fO0pSWnL7iLaMwyx3XtlbnwPQXpLJ7LwbOjDYDA8fDwNpJhYY6XkNRb9QbGAADu4ABSCVMee1Cg2EjjgUMgIFtxgCkAqnwg0wwAAbAQDUMQCqAqRqYtrn3hG307sHAejAAqUAqkAoYAANgoBoGIBXAVA1M9ATX0xOknqnnbcYApAKpQCpgAAyAgWoYgFQAUzUwbXPvCdvo3YOB9WAAUoFUIBUwAAbAQDUMQCp7BKYrV640+iikV7aeXhn1TD2DgS4GtppUhvbfoiG7Den6uHz5MqSyRx0FtythGe/Uy/bVC6SyZw4IUtm+lwzHR5scEga2k1R6zlLRxo1x08m4AaROdjw5OWzLOxdrV+O7H/qH7caR2jzy7m96d2dTyajLjV7ayFKbUfp5DB984F3tMcFPfvDx5vTdp4oyUT5fHx0dNXfu3GmnrK5fvz5Nf+7cueb27dtt/M2bN5uzZ8+2z0QY8SMZyUa9JpUoqzyUV5TTdcxfeq9du9bIDudXkinpivZq6i3e2/6SPTl/yShP5a908ZOn9KKMbXaaUr3ksnOPowcDq8HAdpLKZPQwZvpLMp1t7idpRRgiiBY4k63vdeyw5A0mkU8kIz3TWfMmJ8m1+sPRxE6rcFlSkQ45xEgo1m+naUcrB3zjxo0Zhy8HGglD8q+//nrrlE0OdvLWpTwUJyes0HnKDpNAn0xJl9M770g8L7/88jQPPc8OP5dTumRHtNVxpXpS2VVe5ek0zz33XKM/20W4GudBvVKvJQzsPKmoUCKQfJ5Khxx6Dv1S2jMffXJKNNIxJaIwLSZikVypApeNkyO0I9e1HbKc961bt6aEoZ66nWbMU05VIwzHRX2OU5jldC/9kVSivK6lK48QFK80cvAmLafry9vPSwSS0/Tplg6VU3Zbn8Ix5YjyXOMIwcBqMbAXpNKOJs4/33iaqjNKETmcPtMSj59HUEUiUbp43kq8jiOamH7Z6+gU5TQ1GjGBmGyUh5x43yfKLUIEyid+8igiPx+SlY19ecc6iiRikonEpfoQsfZ9lD7qk3wk1fiM69U6D+qX+i1hYC9IRQXzaKU0hSVS0chFz3IljBmp5DQ17+VYRSRyliIOTdsovHr1ahs6LxON7/tC68nPxzhfycQpNumKDj/rzPdj5DUSEXlJVn+ZyIZGKjk/3Y8pVykdcThEMLAaDGw9qcT1Ep/eGKe6DAyPVjSimJnCmkx/lU56jNNa0q/0eUQjfaWRSo01FdkvEtG6gB24RyVyui6fnK1GJAodp1AyeaSiXr50WE5p4lSa4pWX87NcJhUTnuIto1D3pakz2ZJ1xnS+loxs9qjM8Q5LtnlUE+tE8pDKahyD24KQ+l0UA1tNKiqMCCROQ80QRlj70GhFfzOVMJn+Ulp9I8z6Mskoncgpyki2RCiSrUUqcpReS5HefO/yyIHmqaFIKHLG+tgpewop6rYuy1pGYR41SFaEpPj4yXKyt/TJcs7bOkt2WcbEGvVGQinVhWSHdFo3IY4SDKwOA1tPKos0fpzK6qQbWFPpyAWCIn51oKNuqVswsL8Y2BtS0QgjTmV1QAupzI7eIFDqBAyAgRVgYLdJpfAjyTyl5XWYoSmvDgGtoJLRv7+9MtqWtgUDXQzsNqlAAPS0wAAYAANbhQFIBUBuFSDp9XV7fdQH9bFrGIBUIBVIBQyAATBQDQOQCmCqBqZd61FhL6MAMFAfA5AKpAKpgAEwAAaqYQBSAUzVwESvr36vjzqlTncNA5AKpAKpgAEwAAaqYQBSAUzVwLRrPSrsZRQABupjAFKBVCAVMAAGwEA1DFQnlc4GkBeOmjOPPTE9QMubNbY7CT/4UGfjxtLOw/l8k+JmkSdPtrsK65f0/tW89CvfvPmkjvzV0b8vPn6+3QySXkr9Xgp1Sp2CgcPGQFVSkROPjt9bpETC8PbycUt7gVDpYlqliekko/u8Y3C75X067rfdjfjiJUiF3le13heO8rAdJe0/vv2rkoqcfiSGUkO0pHL++dkDs+Kmj/E6OUblEUcgvTsTp3QlW4gbDxTqiroCA2BgDAaqkopOWNRIwtNQCjPJiFTauNNnZnqRJgiPcKKeeD0dwQyQz5jCI8NLAgbAABioi4G6pFIYHYgApiQwWf8Q8Yg4Oo0ZCSJeF3TGdCaiGMd1XZBQn9QnGAADYzFQj1R6zoEvkYoW1fPaiKa0Ivnk9RkXSKOcKNeuqZx/vktSkxFTHiWxUM+LYRwRggUwsBoMVCWVPPU1NP116v0f6kyTZZJRg4s84rSXriOhGBT+VlmUjesuloNUVgMi1y8h9QsGwEA9UpkzTWWwDa2pWIYQYIIBMAAGdhMDkMpIMgTguwlw2o12AwPrxcBaSSVPU5WmvADAegFAfVPfYAAM1MTAWkmlpuHo4kUAA2AADGwfBiAVpr+6X+2mPqgPMAAGlsAApLJE5dFL2r5eEm1Cm4CBzWIAUoFU6JWBATAABqphAFIBTNXARA9xsz1E6p/63wYMQCrLkMrkl/ulH1puQ+NiA04GDICBdWMAUoFUGKksgwHSgh8w0MHAQZEKm0/Sa1t3r438wNyhYQBSoZfR6WUc2gtAeXH6YKAuBjZGKnmzyNMPPzJzzsq8X+BrLcObVvpa9/mX+vFZ3HTy/gtHM4eFaWfjKJN1tQBM58aU1lScp/T5umSb9OVyluyKZ8yo7uJ9tjE+U573PPV0W7eKzy/QB97zvvZ45Y+899GZZ1mW+7ovH/VJfe4jBjZCKnK0nW3pJ046Okc52nzksJyzts2PzlFy9z3zQus4dUiYGklOt6N/Mho5zvSX8ox2ZRAoL8nkeN2PsU1lkf5YJl2rnCW9bR0880ITiefub3r3m+kLRxDIxlxvthdSwbEZC4RgoQYG1k4qcrRy7vOM7yMAOVU5SacvkY/i1Ds3yVi2T6efl0I5+JagCidVSn4eqWRizLbl8tiGvnwlP0RySqc8lY91EeIswAAYWBcG1k4qfU60U+CBkx/lLCMp5XvpyY7buseQikgiTn/1TVlZ5zxSibaWbCvl5/xLo4sx9ScZ62jDwjSf7SfE2YABMFATA2snlRIJlArURwDZqZb0HZdU5ODztFnfiME2L0squTzW2xcuKi897eglTbH16SceBwMGwMAyGFg7qchYOW4542h427sOPeoSWZScY0muj1RyvrIhjgb0XHZM7Sqs9UyfTdZpliUVTdFpqk42R926z1Nnej6PVPS8RIx53cZ5saaCAzEWCMFCDQxshFRkuBxfnKIprRPIYUeZuDgtHS0RXbzUyjh9jIuEIXmRkuKs02lckfm55PStNKWJumbsmtggeeW/qG2lfGN+WZ/tVzhKLpC1y+oQUsGRGAuEYKEGBjZGKjWMRwcvARgAA2BguzAAqfDjx860Gy/odr2gtAftsWsYgFQgFUgFDIABMFANA5AKYKoGpl3rUWEvowAwUB8DkAqkAqmAATAABqphAFIBTNXARK+vfq+POqVOdw0DkAqkAqmAATAABqphAFIBTNXAtGs9KuxlFAAG6mPg4EhFP07MP3oEWPWAdeXKleb69esQFZ0VMHCgGIBUDrThV0WkkEo9gl5VG6GXNlolBg6OVFZZmejmZQUDYODQMQCpMFJhmgIMgAEwUA0DB0MqcaPJmTUVHw984ag589gT0w0q737gHdMNKLWJpHsgpQ0g43PLKYwbZyrfUw8+1J7aGG3QjsTaLHO6UeTABpD3nbmnefrRjzeffewTzdvf+rapTTHPedeXL19u9NHah691f/Pmzebs2bMdnefOnWtu377dyuufprf052vn5TjFl9ZUjo6Omjt37rR5vPLKK+21ZKVbeVhPzM/2RBuVj2UJGRWAge3DwMGQisEnQmi3hi+c5Kh4O/t2J+KJc1caxSu0nhwqbSaWHNd+SeDZlzqHjJV0K067D3vH45hXDVKRPjn5119/vblx48aUSOSwIyHIwd+6dauVtQ16rnRy9I6LofReu3at+Ez6RBTSaSKRHpOH9YjYFOc88r3lCLfPodAmtMnWkso7/95XN2e/5UTx7233fV3RaY0BtBx2H6nEg8Hk0E0SJcef84ryetaXj3S2+U+G2zmd9fal9/NlQzn/6NylT3GRZOTU88hgnoOfRyqZpEw0JhmXy/mIoDSaMcH4OSHOCwxsJwa2llRWBZghZz2aVDxdFs5R0dSVSUi2a0orHyVcilea6bRX0pfPSqlZJyXnn0lFhFJy5n3xsq+k13aLODTSEWHEOI1KMqnoueJEKJnYnJZwO50K7XLY7QKphAW6UaQyIZQ8NZVHHH3kJbkxI5VVv5gl559JpTRSkV0ihhLZ6FlJr8uyCKlIjwhFofLTn/UQHrbTov23u/0hlQVJRWSR11e80B5HKgK+7mOc5SKpLHqccM01lbz2kUlFIwpNhyneL7JGDfqsklSUX56aU74Qy3Y7E2OE8LDb6SBIRUSgqaTSNFO7MD8hCj/XaEJ/utfz6bfAJgv3fmZ56daxw7rvEEb69pcX3/O0WMm+vqmvGqQiQvDHi+QxLn4jy1NQlpdjz9NfIgF9s6v0MRFEGeuPcUqv+2hHyTbH4bgO23HR/tvb/gdBKtsEwDz9tU22jbVFRNE3UhmrA7ntdQq0DW2zDAYglTD9tUxFjk2rkYyIZaz8tslp5NK3sL5ttmIPzhEMrB8DkMqKSSV/uyuusewC4P3VXk9teZpqF2zHxvU7FOqcOodUVkwqvGS8ZGAADBwSBiAVSGVnp+IO6UWlrBDTrmAAUoFUIBUwAAbAQDUMQCqAqRqYdqUnhZ30+sHA6jAAqUAqkAoYAANgoBoGIBXAVA1M9P5W1/ujbqnbXcEApHLgpOJfsPNjRpzWrjgt7NxurEIqB0oqJhP9kFH7e0Eq2/2i4khpn13BAKRyoKQSAcq2KzisiAeuwcMyGDgIUtHWKNrs0ftueSPI0q/bLWuZdsPJySmR3mVYcfc89XSrUzqmG0zmY4AL566U8lQDnr77VPPkBx9vXnz8fPPgA+9aap0j/wpeGzi+9tprveeSQCo4kWWcCGnBT8TAQZBK67Qffay575kX3tyKvudclFg5uhZhRGLxjsItOUx0+LlJyzpK+3wpTn+WcViLVLyrcJzO8m7AfYddQSo4BeOQECwsi4GDIpXszEUMfSMHV6xIpE03Ga3k+3ywl/PIctanMKaJ8TWu87b0Y3RCKjiSMThBBpyMwcBBkYpGErFSSqSiOE99OfRIRGkzWUSCiCMVT5VZRw6zLdGuZa518JZGJovogFRwFovgBVnwMoQBSOXRx6YOWITikYYrLZNIvu8jlSxnfasOGanwwq8aY+gHY0MYgFQCqYhQOiOItGaiisxk0Ucqki2NhHR8sEY+nXwqLtRrTUVH8ebRikYjfacmMlLBSQw5CZ6Bj0UwcBCkIrLw9JMcvSooxnl0IsLIxw7rmGDF6e+uf/Atzf0XjlpdPu7XeqRXRKF84nSZnzt/hZlQZE+thXrp8mK9z0BRmBfp/TuVKKNrH/W7CIiQxemAATBgDBwEqbiwhAAfDIABMLBaDEAq/PhxuqbEy7bal436pX4PAQOQCqQCqYABMAAGqmEAUgFM1cB0CL0wyshoAwwMYwBSgVQgFTAABsBANQxAKoCpGpjowQ334Kgf6ucQMACpQCqQChgAA2CgGgYgFcBUDUyH0AujjIw2wMAwBiAVSAVSAQNgAAxUwwCkApiqgYke3HAPjvqhfg4BA5AKpAKpgAEwAAaqYQBSAUzVwHQIvTDKyGgDDAxjAFKBVCAVMAAGwEA1DEAqgKkamOjBDffgqB/q5xAwAKlAKpAKGAADYKAaBiAVwFQNTIfQC6OMjDbAwDAGIBVIBVIBA2AADFTDAKQCmKqBiR7ccA+O+qF+DgEDkAqkAqmAATAABqphAFIBTNXAdAi9MMrIaAMMDGMAUoFUIBUwAAbAQDUMQCqAqRqY6MEN9+CoH+rnEDAAqUAqkAoYAANgoBoGIBXAVA1Mh9ALo4yMNsDAMAYgFUgFUgEDYAAMVMMApAKYqoGJHtxwD476oX4OAQOQCqQCqYABMAAGqmEAUgFM1cB0CL0wyshoAwwMYwBSgVQgFTAABsBANQxAKoCpGpjowQ334Kgf6ucQMACpQCqQChgAA2CgGgYgFcBUDUyH0AujjIw2wMAwBiAVSAVSAQNgAAxUwwCkApiqgYke3HAPjvqhfg4BA5AKpAKpgAEwAAaqYQBSAUzVwHQIvTDKyGgDDAxj4P8D8lPmIw99Vr4AAAAASUVORK5CYII=;" vertex="1" parent="1">
          <mxGeometry x="10" y="800" width="405" height="487" as="geometry" />
        </mxCell>
      </root>
    </mxGraphModel>
  </diagram>
</mxfile>
